<?xml version="1.0" encoding="UTF-8"?>
<svg id="Layer_1" data-name="Layer 1" xmlns="http://www.w3.org/2000/svg" viewBox="0 0 841.44 539.01">
  <defs>
    <style>
      .cls-1 {
        fill: #1a0911;
      }

      .cls-2 {
        fill: #3d3a3c;
      }

      .cls-3 {
        fill: #130000;
      }

      .cls-4, .cls-5 {
        fill: #231f22;
      }

      .cls-6 {
        font-family: CascadiaCodeRoman-Bold, 'Cascadia Code';
        font-size: 29px;
        font-variation-settings: 'wght' 700;
      }

      .cls-6, .cls-7 {
        fill: #fff;
        font-weight: 700;
      }

      .cls-8 {
        fill: #5b5759;
      }

      .cls-9 {
        fill: #d90276;
      }

      .cls-7 {
        font-family: RobotoSlab-Bold, 'Roboto Slab';
        font-size: 71px;
      }

      .cls-5, .cls-10 {
        isolation: isolate;
      }

      .cls-11 {
        fill: #ed6bd1;
      }

      .cls-10 {
        fill: #7c767b;
      }
    </style>
  </defs>
  <g>
    <g>
      <polygon class="cls-8" points="664.84 320.96 314.93 277.06 283.55 273.69 568.81 44.38 664.84 320.96"/>
      <circle class="cls-9" cx="680.56" cy="160.87" r="160.83"/>
    </g>
    <g>
      <text class="cls-7" transform="translate(569.24 135.21)"><tspan x="0" y="0">OOPS...</tspan></text>
      <text class="cls-6" transform="translate(572.94 207.72)"><tspan x="0" y="0">I didn’t find </tspan><tspan x="84.96" y="34.8">it.</tspan></text>
    </g>
  </g>
  <path class="cls-11" d="m254.42,269.82c-2.31-2.34-5.66-3.29-8.86-4.05-10.89-2.58-22.03-4.08-33.21-4.48-.08-11.02-.4-22.04-.97-33.03-.21-4.14-.46-8.27-.74-12.4-4.09-64.85-66.62-102.36-114.13-87.66-47.75,14.53-64.01,60.69-58.59,106.26.37,3.07.71,6.13,1.02,9.21,1.21,11.78,2.03,23.59,2.5,35.42-65.15,68.83-39.25,86.88-17.76,65.49,5.69-5.67,11.73-11.48,17.67-17.1-1.08,25.06-3.74,50-7.89,74.51-.08.5-.17.99-.25,1.49-1.55,9.09,4.13,17.88,12.86,20.27,8.75,2.26,17.17-3.32,18.96-13.08.08-.41.15-.82.22-1.23.08-.47.17-.93.25-1.4,1.73-9.7,10.51-16.79,19.53-15.11.05,0,.1.02.15.03,9.01,1.68,15.03,12.19,13.05,22.62-.09.49-.19.99-.28,1.48-.08.44-.17.87-.25,1.31-1.97,10.26,3.26,20.06,11.9,22.63,8.65,2.44,17.39-3.91,19.62-14.89.09-.46.19-.93.28-1.39.11-.52.21-1.05.31-1.57,2.16-10.91,11.17-18.34,20.12-16.52,8.94,1.82,14.75,12.94,12.3,24.63-.12.56-.23,1.11-.35,1.66-.1.49-.21.98-.31,1.47-2.44,11.55,2.05,22.9,10.64,25.62,8.58,2.72,17.82-4.98,20.57-17.3.15-.66.29-1.32.44-1.98,10.8-49.01,17.26-99.54,18.8-150.17,19.74-2.41,39.35-5.79,43.19-11.88,1.76-2.78,1.54-6.53-.77-8.87Z"/>
  <path class="cls-1" d="m190.74,211.36c1.5,9.26-1.92,18.7-9.44,21.76-7.45,3.06-17.21-3.93-19.36-16.43-2.16-12.49,4.71-22.92,12.77-22.73,8.11.16,14.42,8.17,16.03,17.4Z"/>
  <path class="cls-1" d="m140.78,225.89c1.5,9.26-1.92,18.7-9.44,21.76-7.45,3.06-17.21-3.93-19.36-16.43-2.16-12.49,4.71-22.92,12.77-22.73,8.11.16,14.42,8.17,16.03,17.4Z"/>
  <ellipse class="cls-3" cx="111.68" cy="531.42" rx="82.56" ry="7.59"/>
  <g>
    <path class="cls-2" d="m229.1,282.27l-1.53-10.34c-.13-.88.44-1.7,1.3-1.9l80.49-18.19c.96-.22,1.9.43,2.05,1.4l3.25,22.02c.14.97-.56,1.86-1.54,1.93l-82.22,6.51c-.89.07-1.68-.56-1.81-1.44Z"/>
    <path class="cls-4" d="m265.53,274.04l-.42-2.84c-.05-.32.16-.61.47-.68l9.79-2.05c.34-.07.67.16.72.5l.58,3.91c.05.34-.19.65-.54.69l-9.94.99c-.32.03-.61-.19-.66-.51Z"/>
    <path class="cls-5" d="m313.13,278.08c-5.16.76-10.25-4.68-11.35-12.17-1.1-7.48,2.19-14.17,7.35-14.93s10.25,4.68,11.35,12.17-2.19,14.17-7.35,14.93Z"/>
    <path class="cls-10" d="m314.8,277.08c-4.19.62-8.43-4.62-9.47-11.69-1.04-7.07,1.5-13.31,5.69-13.93s8.43,4.62,9.47,11.69c1.04,7.07-1.5,13.31-5.69,13.93Z"/>
  </g>
  <path class="cls-11" d="m221.21,272.59c2.16,1.91,4.57,3.53,7.16,4.81,2.63,1.29,5.6,2.24,8.46,1.63,2.86-.61,5.46-3.21,5.18-6.13-.33-3.55-4.23-5.46-7.57-6.69l-13.23,6.39Z"/>
</svg>